<svg width="412" height="100" viewBox="0 0 412 100" fill="none" xmlns="http://www.w3.org/2000/svg">
<g clip-path="url(#clip0_118_5)">
<path d="M184.09 26.0329C182.972 26.0863 182.1 26.1634 181.602 26.2583C181.228 26.3235 180.683 26.4184 180.326 26.4718C180.209 26.4955 180.092 26.5311 180.074 26.5607C180.057 26.5904 179.94 26.6141 179.817 26.6141C179.694 26.6141 179.571 26.6378 179.553 26.6734C179.536 26.7031 179.442 26.7327 179.349 26.7327C179.255 26.7327 179.161 26.7564 179.144 26.792C179.126 26.8217 179.021 26.8513 178.91 26.8513C178.798 26.8513 178.693 26.875 178.675 26.9106C178.658 26.9403 178.576 26.9699 178.5 26.9699C178.424 26.9699 178.342 26.9936 178.324 27.0292C178.307 27.0589 178.236 27.0885 178.172 27.0885C178.113 27.0885 178.014 27.1122 177.955 27.1419C177.903 27.1716 177.791 27.219 177.71 27.2486C177.452 27.3554 177.218 27.4562 177.112 27.5096C177.054 27.5392 176.978 27.5629 176.949 27.5629C176.913 27.5629 176.773 27.6163 176.644 27.6816C176.51 27.7468 176.363 27.8002 176.322 27.8002C176.281 27.8002 176.246 27.8239 176.246 27.8595C176.246 27.8891 176.205 27.9188 176.158 27.9188C176.112 27.9188 176.024 27.9425 175.965 27.9721C175.532 28.1916 175.345 28.2746 175.274 28.2746C175.228 28.2746 175.192 28.2983 175.192 28.3339C175.192 28.3635 175.14 28.3932 175.075 28.3932C175.011 28.3932 174.958 28.4169 174.958 28.4525C174.958 28.4821 174.906 28.5118 174.847 28.5118C174.783 28.5118 174.724 28.5296 174.713 28.5533C174.707 28.583 174.584 28.66 174.449 28.7312C174.309 28.8083 174.086 28.9269 173.952 28.9981C173.811 29.0752 173.694 29.1523 173.682 29.176C173.671 29.2056 173.635 29.2234 173.606 29.2234C173.571 29.2234 173.39 29.3302 173.202 29.4606C173.015 29.5911 172.839 29.6978 172.822 29.6978C172.804 29.6978 172.734 29.7512 172.664 29.8164C172.594 29.8817 172.5 29.935 172.459 29.935C172.418 29.935 172.383 29.9588 172.383 29.9884C172.383 30.0181 172.307 30.0714 172.207 30.113C172.114 30.1545 172.032 30.2019 172.032 30.2256C172.032 30.2494 171.955 30.3146 171.856 30.368C171.762 30.4273 171.651 30.5044 171.61 30.5459C171.569 30.5874 171.44 30.6882 171.329 30.7653C171.218 30.8424 171.083 30.9491 171.036 31.0025C170.99 31.0559 170.855 31.1626 170.744 31.2397C170.633 31.3168 170.498 31.4235 170.451 31.4769C170.404 31.5244 170.194 31.7141 169.983 31.892C169.497 32.3131 168.525 33.2975 168.11 33.7897C167.934 34.0032 167.747 34.2167 167.7 34.2641C167.647 34.3116 167.542 34.448 167.466 34.5606C167.39 34.6733 167.308 34.7801 167.29 34.7978C167.273 34.8156 167.167 34.9461 167.056 35.0944C166.945 35.2426 166.804 35.4146 166.752 35.4739C166.693 35.5391 166.646 35.6281 166.646 35.6696C166.646 35.7111 166.623 35.7467 166.599 35.7467C166.576 35.7467 166.512 35.8179 166.459 35.9068C166.406 36.0017 166.295 36.1499 166.213 36.2508C166.131 36.3456 166.061 36.4642 166.061 36.4998C166.061 36.5413 166.038 36.5769 166.002 36.5769C165.973 36.5769 165.944 36.6066 165.944 36.6422C165.944 36.6718 165.838 36.8616 165.71 37.0513C165.581 37.2411 165.476 37.4249 165.476 37.4605C165.476 37.4902 165.458 37.5258 165.435 37.5376C165.376 37.5613 165.189 37.8756 165.142 38.012C165.124 38.0713 165.089 38.1188 165.06 38.1188C165.031 38.1188 165.007 38.1722 165.007 38.2315C165.007 38.2967 164.99 38.356 164.96 38.3679C164.902 38.3916 164.071 40.0876 164.071 40.1766C164.071 40.2181 164.047 40.2537 164.012 40.2537C163.983 40.2537 163.954 40.2952 163.954 40.3426C163.954 40.3901 163.93 40.479 163.901 40.5383C163.831 40.6747 163.749 40.8941 163.661 41.1432C163.573 41.3923 163.52 41.5405 163.439 41.7362C163.403 41.8193 163.345 41.9912 163.304 42.1217C163.263 42.2522 163.204 42.3826 163.181 42.4123C163.158 42.4479 163.134 42.5428 163.134 42.6317C163.134 42.7207 163.105 42.8155 163.076 42.8333C163.04 42.8511 163.017 42.9223 163.017 42.9875C163.017 43.0468 162.994 43.1476 162.964 43.2069C162.935 43.2603 162.882 43.4264 162.841 43.5746C162.806 43.7229 162.748 43.9245 162.719 44.0253C162.689 44.1261 162.666 44.2625 162.666 44.3337C162.666 44.3989 162.642 44.476 162.607 44.4938C162.578 44.5116 162.549 44.6361 162.549 44.7607C162.549 44.8852 162.525 45.0097 162.49 45.0275C162.461 45.0453 162.432 45.1758 162.432 45.3181C162.432 45.4545 162.408 45.5909 162.379 45.6205C162.35 45.6561 162.309 45.8281 162.291 46.006C162.274 46.1839 162.233 46.5338 162.198 46.7769C161.934 48.7339 161.934 51.1297 162.198 53.063C162.233 53.3061 162.274 53.6382 162.291 53.8043C162.309 53.9644 162.35 54.1245 162.379 54.1542C162.408 54.1898 162.432 54.3262 162.432 54.4625C162.432 54.6049 162.461 54.7353 162.49 54.7531C162.525 54.7709 162.549 54.8955 162.549 55.02C162.549 55.1445 162.572 55.2691 162.607 55.2869C162.637 55.3046 162.666 55.4114 162.666 55.5241C162.666 55.6367 162.695 55.7435 162.724 55.7613C162.76 55.7791 162.783 55.8858 162.783 55.9985C162.783 56.1112 162.806 56.2179 162.841 56.2357C162.871 56.2535 162.9 56.3484 162.9 56.4432C162.9 56.5381 162.929 56.633 162.959 56.6508C162.994 56.6686 163.017 56.7398 163.017 56.805C163.017 56.8643 163.04 56.9651 163.07 57.0244C163.099 57.0778 163.158 57.2438 163.199 57.3921C163.239 57.5403 163.292 57.6827 163.321 57.7183C163.345 57.7479 163.368 57.8309 163.368 57.908C163.368 57.9851 163.398 58.0444 163.427 58.0444C163.462 58.0444 163.485 58.0978 163.485 58.163C163.485 58.2283 163.509 58.3291 163.538 58.3884C163.567 58.4417 163.632 58.59 163.684 58.7086C163.737 58.8331 163.819 59.0288 163.866 59.1415C163.913 59.2542 163.995 59.444 164.041 59.5566C164.246 60.0429 164.334 60.2149 164.434 60.3691C164.492 60.4521 164.539 60.5529 164.539 60.5885C164.539 60.6181 164.621 60.7901 164.72 60.9621C164.908 61.2764 165.019 61.478 165.247 61.8813C165.312 61.9999 165.47 62.249 165.598 62.4387C165.721 62.6285 165.827 62.8123 165.827 62.842C165.827 62.8776 165.856 62.9072 165.885 62.9072C165.92 62.9072 165.944 62.9428 165.944 62.9843C165.944 63.0436 166.717 64.1288 166.822 64.2119C166.845 64.2297 166.886 64.283 166.916 64.3364C167.22 64.882 168.73 66.5365 169.836 67.5269C176.27 73.3089 185.261 75.4141 193.426 73.042C198.73 71.5061 203.524 68.0072 206.497 63.518C208.95 59.8116 210.22 55.2335 209.969 51.0527C209.787 48.0816 209.044 45.6917 207.686 43.7229C207.311 43.1714 206.281 42.0921 206.14 42.0921C205.976 42.0921 206.012 42.2166 206.398 43.0053C206.492 43.1951 206.568 43.3908 206.568 43.4382C206.568 43.4797 206.591 43.5628 206.62 43.6221C206.65 43.6754 206.702 43.8415 206.743 43.9897C206.784 44.138 206.837 44.304 206.866 44.3574C206.895 44.4167 206.919 44.5294 206.919 44.6065C206.919 44.6895 206.948 44.7725 206.977 44.7903C207.013 44.8081 207.036 44.9148 207.036 45.0216C207.036 45.1224 207.059 45.2351 207.089 45.2647C207.118 45.3003 207.159 45.4545 207.176 45.6205C207.2 45.7807 207.241 46.1305 207.282 46.3915C207.364 47.0023 207.364 50.1275 207.276 50.8688C207.241 51.1772 207.194 51.5923 207.176 51.788C207.159 51.9837 207.118 52.1675 207.089 52.1972C207.059 52.2328 207.036 52.3692 207.036 52.5056C207.036 52.6479 207.013 52.7784 206.977 52.7961C206.948 52.8139 206.919 52.9385 206.919 53.063C206.919 53.1875 206.895 53.3121 206.86 53.3299C206.831 53.3477 206.802 53.4544 206.802 53.5671C206.802 53.6798 206.778 53.7865 206.743 53.8043C206.714 53.8221 206.685 53.9288 206.685 54.0415C206.685 54.1542 206.661 54.2609 206.626 54.2787C206.597 54.2965 206.568 54.3795 206.568 54.4566C206.568 54.5337 206.544 54.6167 206.509 54.6345C206.48 54.6523 206.451 54.7353 206.451 54.8124C206.451 54.8895 206.427 54.9725 206.392 54.9903C206.363 55.0081 206.334 55.0912 206.334 55.1682C206.334 55.2453 206.31 55.3284 206.275 55.3462C206.246 55.3639 206.216 55.4351 206.216 55.5003C206.216 55.5596 206.193 55.6664 206.158 55.7316C206.129 55.7969 206.076 55.9036 206.041 55.9688C206.006 56.0341 205.982 56.1289 205.982 56.1764C205.982 56.2238 205.959 56.2653 205.924 56.2653C205.894 56.2653 205.865 56.3069 205.865 56.3543C205.865 56.4017 205.842 56.4907 205.813 56.55C205.596 56.9888 205.514 57.1786 205.514 57.2498C205.514 57.2972 205.491 57.3328 205.455 57.3328C205.426 57.3328 205.397 57.3862 205.397 57.4514C205.397 57.5166 205.374 57.57 205.338 57.57C205.309 57.57 205.28 57.6234 205.28 57.6886C205.28 57.7538 205.256 57.8072 205.221 57.8072C205.192 57.8072 205.163 57.8606 205.163 57.9199C205.163 57.9851 205.145 58.0444 205.116 58.0563C205.093 58.0622 204.987 58.246 204.876 58.4595C204.765 58.673 204.659 58.8569 204.642 58.8746C204.583 58.9221 204.396 59.2483 204.361 59.3609C204.343 59.4202 204.308 59.4677 204.279 59.4677C204.25 59.4677 204.226 59.5033 204.226 59.5388C204.226 59.5803 204.144 59.7108 204.051 59.8235C203.957 59.9362 203.875 60.0666 203.875 60.1022C203.875 60.1437 203.852 60.1793 203.828 60.1793C203.805 60.1793 203.735 60.2564 203.682 60.3572C203.623 60.4521 203.547 60.5648 203.506 60.6063C203.465 60.6478 203.366 60.7783 203.29 60.8909C203.214 61.0036 203.132 61.1104 203.114 61.1281C203.096 61.1459 202.991 61.2764 202.88 61.4247C202.3 62.1837 201.182 63.3105 200.246 64.0933C200.07 64.2415 199.912 64.372 199.895 64.3898C199.877 64.4076 199.772 64.4906 199.66 64.5677C199.549 64.6448 199.444 64.7278 199.426 64.7456C199.409 64.7634 199.303 64.8464 199.192 64.9235C199.081 65.0006 198.952 65.1014 198.911 65.1429C198.87 65.1844 198.812 65.22 198.788 65.22C198.765 65.22 198.665 65.2852 198.572 65.3683C198.478 65.4513 198.367 65.5165 198.332 65.5165C198.291 65.5165 198.256 65.5402 198.256 65.5699C198.256 65.5995 198.179 65.6529 198.08 65.6944C197.986 65.7359 197.904 65.7893 197.904 65.819C197.904 65.8486 197.875 65.8723 197.84 65.8723C197.811 65.8723 197.629 65.9732 197.448 66.0977C197.266 66.2222 196.985 66.3883 196.821 66.4654C196.663 66.5484 196.523 66.6314 196.511 66.6551C196.5 66.6848 196.441 66.7026 196.377 66.7026C196.318 66.7026 196.265 66.7263 196.265 66.7619C196.265 66.7915 196.23 66.8212 196.183 66.8212C196.137 66.8212 195.984 66.8805 195.844 66.9457C195.61 67.0643 195.493 67.1177 195.171 67.2422C195.095 67.2719 194.972 67.3193 194.89 67.3549C194.808 67.3846 194.679 67.4379 194.597 67.4735C194.515 67.5032 194.392 67.5565 194.322 67.5862C194.246 67.6158 194.082 67.6751 193.953 67.7166C193.824 67.7522 193.672 67.8056 193.62 67.8353C193.561 67.8649 193.462 67.8886 193.403 67.8886C193.339 67.8886 193.268 67.9123 193.251 67.9479C193.233 67.9776 193.14 68.0072 193.046 68.0072C192.952 68.0072 192.859 68.0309 192.841 68.0665C192.823 68.0962 192.73 68.1258 192.636 68.1258C192.542 68.1258 192.449 68.1496 192.431 68.1851C192.414 68.2148 192.308 68.2444 192.203 68.2444C192.103 68.2444 191.992 68.2682 191.963 68.2978C191.928 68.3275 191.799 68.363 191.67 68.3808C191.542 68.4046 191.29 68.4461 191.114 68.4816C190.939 68.5172 190.646 68.5647 190.47 68.5765C190.295 68.5943 190.096 68.6299 190.031 68.6596C189.826 68.7485 188.96 68.796 187.397 68.796C185.746 68.796 184.769 68.7129 183.622 68.4816C183.446 68.4461 183.183 68.3986 183.036 68.3808C182.89 68.363 182.749 68.3275 182.714 68.2978C182.685 68.2682 182.574 68.2444 182.474 68.2444C182.369 68.2444 182.264 68.2207 182.246 68.1851C182.228 68.1555 182.152 68.1258 182.088 68.1258C181.953 68.1258 181.614 68.025 181.444 67.942C181.386 67.9123 181.286 67.8886 181.222 67.8886C181.157 67.8886 181.046 67.859 180.97 67.8175C180.695 67.6751 180.636 67.6514 180.549 67.6514C180.502 67.6514 180.414 67.6277 180.355 67.598C180.244 67.5387 179.969 67.4201 179.788 67.3549C179.372 67.2007 177.048 66.0325 176.949 65.9316C176.89 65.8723 176.568 65.6885 176.469 65.6529C176.41 65.6351 176.363 65.5995 176.363 65.5699C176.363 65.5402 176.328 65.5165 176.287 65.5165C176.246 65.5165 176.152 65.4632 176.082 65.3979C176.012 65.3327 175.942 65.2793 175.924 65.2793C175.883 65.2793 175.368 64.9235 175.31 64.8642C175.292 64.8464 175.187 64.7634 175.075 64.6863C174.964 64.6092 174.835 64.5084 174.794 64.4669C174.748 64.4254 174.619 64.3127 174.502 64.2237C174.379 64.1348 174.25 64.034 174.209 63.9925C174.168 63.9509 174.01 63.8205 173.858 63.6959C173.489 63.3994 172.131 62.0177 171.762 61.5729C169.321 58.6196 167.864 55.0793 167.518 51.2602C167.437 50.3588 167.483 48.0282 167.606 47.2217C168.104 43.8771 169.421 40.8467 171.54 38.1484C172.201 37.3063 173.647 35.8416 174.432 35.213C177.815 32.4969 182.041 31.1092 186.15 31.3702C187.936 31.4769 189.903 32.1114 191.723 33.167C192.496 33.6118 192.753 33.7304 192.753 33.6474C192.753 33.6296 192.66 33.4398 192.548 33.2145C192.332 32.7816 192.226 32.3427 192.226 31.898C192.232 31.5421 192.297 31.6548 192.461 32.3012C192.531 32.574 192.665 32.9595 192.759 33.1492C192.905 33.4458 193.555 34.442 193.789 34.7385C193.83 34.786 193.994 34.9995 194.158 35.213C194.328 35.4265 194.574 35.717 194.708 35.8653C194.843 36.0135 195.019 36.227 195.095 36.3397C195.171 36.4524 195.27 36.5829 195.311 36.6244C195.352 36.6659 195.387 36.7252 195.387 36.7548C195.387 36.7845 195.422 36.8438 195.463 36.8853C195.54 36.9683 195.698 37.2589 195.99 37.8519C196.336 38.5636 196.406 38.6881 196.617 39.0083C196.921 39.465 197.594 40.0876 197.998 40.2893C198.671 40.6273 199.444 40.485 199.93 39.9453C200.246 39.5895 200.164 39.465 199.719 39.6013C199.45 39.6784 198.94 39.3463 198.226 38.6229C197.641 38.0358 197.553 37.9112 197.296 37.3775C196.939 36.6244 196.634 35.6992 196.511 34.9639C196.429 34.4717 196.429 34.3294 196.488 33.9558C196.634 33.0959 197.032 32.6867 198.127 32.2656C198.572 32.0996 200.568 31.5777 201.932 31.2694C202.739 31.0855 203.401 30.8957 203.963 30.6763C204.074 30.6289 204.074 30.6348 203.957 30.7712C203.887 30.8483 203.816 30.955 203.799 31.0084C203.746 31.1626 203.377 31.3049 202.804 31.3939C202.505 31.4354 202.119 31.5303 201.943 31.5955C201.756 31.6667 201.481 31.7141 201.27 31.7141C200.849 31.7141 200.568 31.7853 200.099 32.0047C199.842 32.1292 199.625 32.1826 199.303 32.2004C198.923 32.2241 198.812 32.2597 198.513 32.4435C198.32 32.5681 198.109 32.663 198.045 32.663C197.922 32.663 197.512 32.912 197.255 33.1492C197.167 33.2263 197.038 33.4102 196.968 33.5644C196.857 33.8075 196.845 33.9142 196.868 34.4835C196.88 34.8334 196.927 35.2426 196.962 35.3909C197.003 35.5391 197.056 35.7882 197.079 35.9542C197.102 36.1144 197.167 36.3575 197.225 36.488C197.319 36.6955 197.653 37.4249 197.863 37.8816C198.033 38.2374 199.186 39.3048 199.403 39.3048C199.596 39.3048 200.298 38.4568 200.304 38.2196C200.304 38.1484 200.064 38.2374 199.9 38.3619C199.818 38.4272 199.666 38.4746 199.526 38.4746C199.145 38.4746 198.806 38.0358 198.677 37.3894C198.624 37.1344 198.63 37.1047 198.718 37.1403C199.157 37.3123 199.924 37.4783 200.644 37.5554C201.668 37.6622 202.078 37.763 202.529 38.0061C202.897 38.2077 203.506 38.8008 203.822 39.2811C204.408 40.1647 205.098 40.8467 205.415 40.8467C205.502 40.8467 205.508 40.8289 205.45 40.7103C205.309 40.4434 204.659 39.4234 204.396 39.0736L204.209 38.8186L204.589 39.0854C204.806 39.2337 205.128 39.4116 205.321 39.4827C205.707 39.6369 206.509 39.7081 206.743 39.6132C206.884 39.5539 206.884 39.548 206.691 39.548C206.211 39.5361 205.59 39.2337 205.022 38.7355C204.267 38.0713 203.887 37.763 203.822 37.763C203.787 37.763 203.758 37.7452 203.758 37.7155C203.758 37.674 203.612 37.6029 203.231 37.4665C203.12 37.4309 202.974 37.3716 202.909 37.3479C202.535 37.1996 201.744 37.0573 200.773 36.9565C200.597 36.9387 200.427 36.8972 200.398 36.8675C200.363 36.8379 200.269 36.8141 200.181 36.8141C200.094 36.8141 200 36.7845 199.982 36.7548C199.965 36.7192 199.895 36.6955 199.83 36.6955C199.643 36.6955 199.081 36.399 198.876 36.1915C198.501 35.8179 198.466 35.4205 198.724 34.6022C199.104 33.3983 199.66 32.9358 201.083 32.657C201.779 32.5206 201.768 32.5206 201.768 32.6511C201.768 32.7104 201.797 32.7875 201.832 32.8231C201.937 32.9298 201.826 35.1122 201.703 35.2426C201.674 35.2723 201.651 35.4087 201.651 35.5451C201.651 35.6874 201.627 35.8179 201.592 35.8356C201.563 35.8534 201.534 35.9187 201.534 35.972C201.539 36.1262 201.68 35.9187 201.943 35.3612C202.33 34.5488 202.581 33.5584 202.657 32.5444C202.675 32.3487 202.693 32.3309 203.026 32.2063C203.219 32.1352 203.395 32.0759 203.413 32.0759C203.43 32.0699 203.495 32.1767 203.553 32.3012C203.67 32.5681 203.658 32.7104 203.436 34.3827C203.401 34.6377 203.401 34.6437 203.489 34.5191C203.828 34.0506 204.226 32.8409 204.32 32.0047C204.349 31.7438 204.408 31.5659 204.501 31.4354C204.94 30.8542 204.905 29.7631 204.437 29.1345C204.279 28.9269 203.758 28.6304 203.553 28.6304C203.483 28.6304 203.407 28.6067 203.372 28.577C203.319 28.5177 202.985 28.4762 202.207 28.4169C201.949 28.3991 201.715 28.3576 201.686 28.328C201.651 28.2983 201.504 28.2746 201.352 28.2746C201.2 28.2746 201.054 28.2449 201.036 28.2153C201.018 28.1797 200.948 28.156 200.89 28.156C200.825 28.156 200.679 28.0967 200.556 28.0255C200.029 27.7231 199.701 27.5629 199.608 27.5629C199.555 27.5629 199.485 27.5392 199.45 27.5096C199.391 27.4503 199.017 27.4088 198.021 27.3495C197.653 27.3317 197.325 27.2902 197.296 27.2605C197.26 27.2309 197.138 27.2071 197.02 27.2071C196.898 27.2071 196.78 27.1775 196.763 27.1478C196.745 27.1122 196.599 27.0885 196.447 27.0885C196.295 27.0885 196.148 27.0648 196.113 27.0352C196.084 27.0055 195.914 26.964 195.739 26.9462C195.563 26.9284 195.235 26.8869 195.007 26.8513C194.293 26.7386 193.748 26.7149 193.462 26.7979C193.122 26.8928 191.899 26.8988 191.805 26.8039C191.764 26.7624 191.612 26.7327 191.465 26.7327C191.319 26.7327 191.173 26.709 191.143 26.6793C191.108 26.6497 190.939 26.6082 190.763 26.5904C190.587 26.5785 190.289 26.5311 190.107 26.5014C188.972 26.2879 188.48 26.2109 188.041 26.1693C187.883 26.1515 187.538 26.116 187.28 26.0804C186.607 25.9974 185.208 25.9736 184.09 26.0329ZM199.605 29.6482C199.675 29.6957 199.87 29.8385 199.911 29.9274C199.987 30.0757 200.082 30.1113 199.983 30.2773C199.883 30.4374 198.751 30.2027 198.57 30.2027C198.259 30.1968 197.704 29.7848 197.704 29.5001C197.704 29.2214 199.335 29.4525 199.605 29.6482Z" fill="black"/>
</g>
<path d="M247.144 73C246.291 73 245.672 72.808 245.288 72.424C244.947 72.04 244.776 71.464 244.776 70.696V31.848C244.776 31.0373 244.947 30.44 245.288 30.056C245.672 29.672 246.291 29.48 247.144 29.48H250.536C251.389 29.48 252.008 29.672 252.392 30.056C252.776 30.44 252.968 31.0373 252.968 31.848V66.792H272.552C273.405 66.792 274.003 66.984 274.344 67.368C274.685 67.7093 274.856 68.2853 274.856 69.096V70.824C274.856 71.592 274.685 72.1467 274.344 72.488C274.003 72.8293 273.405 73 272.552 73H247.144ZM282.207 73C281.353 73 280.735 72.808 280.351 72.424C280.009 72.04 279.839 71.464 279.839 70.696V31.848C279.839 31.0373 280.009 30.44 280.351 30.056C280.735 29.672 281.353 29.48 282.207 29.48H285.599C286.452 29.48 287.071 29.672 287.455 30.056C287.839 30.44 288.031 31.0373 288.031 31.848V70.696C288.031 71.464 287.839 72.04 287.455 72.424C287.113 72.808 286.495 73 285.599 73H282.207ZM297.957 73C297.103 73 296.485 72.808 296.101 72.424C295.759 72.04 295.589 71.464 295.589 70.696V31.848C295.589 31.0373 295.759 30.44 296.101 30.056C296.485 29.672 297.103 29.48 297.957 29.48H316.453C320.89 29.48 324.239 30.5467 326.501 32.68C328.805 34.8133 329.957 37.6933 329.957 41.32C329.957 43.368 329.445 45.2027 328.421 46.824C327.397 48.4453 325.967 49.64 324.132 50.408C328.869 51.9013 331.237 55.2293 331.237 60.392C331.237 62.7813 330.682 64.936 329.573 66.856C328.506 68.7333 326.884 70.2267 324.708 71.336C322.533 72.4453 319.845 73 316.645 73H297.957ZM315.301 47.656C317.391 47.656 318.991 47.1227 320.101 46.056C321.253 44.9893 321.829 43.496 321.829 41.576C321.829 39.4853 321.295 37.992 320.229 37.096C319.205 36.1573 317.541 35.688 315.237 35.688H303.781V47.656H315.301ZM316.261 66.792C318.607 66.792 320.335 66.1947 321.445 65C322.554 63.7627 323.109 62.184 323.109 60.264C323.109 58.0453 322.426 56.3813 321.061 55.272C319.738 54.12 317.882 53.544 315.493 53.544H303.781V66.792H316.261ZM339.894 73C339.041 73 338.422 72.808 338.038 72.424C337.697 72.04 337.526 71.464 337.526 70.696V31.848C337.526 31.0373 337.697 30.44 338.038 30.056C338.422 29.672 339.041 29.48 339.894 29.48H356.598C361.547 29.48 365.302 30.632 367.862 32.936C370.465 35.24 371.766 38.6533 371.766 43.176C371.766 46.1627 371.062 48.7227 369.654 50.856C368.246 52.9467 366.198 54.5253 363.51 55.592L370.614 71.336C370.742 71.592 370.806 71.8267 370.806 72.04C370.806 72.68 370.422 73 369.654 73H364.406C363.851 73 363.446 72.936 363.19 72.808C362.934 72.6373 362.699 72.3173 362.486 71.848L356.022 56.68H345.718V70.696C345.718 71.464 345.526 72.04 345.142 72.424C344.801 72.808 344.182 73 343.286 73H339.894ZM354.934 50.536C357.921 50.536 360.118 49.96 361.526 48.808C362.934 47.656 363.638 45.7787 363.638 43.176C363.638 40.616 362.998 38.7387 361.718 37.544C360.438 36.3493 358.497 35.752 355.894 35.752H345.718V50.536H354.934ZM380.394 73C379.541 73 378.922 72.808 378.538 72.424C378.197 72.04 378.026 71.464 378.026 70.696V31.848C378.026 31.0373 378.197 30.44 378.538 30.056C378.922 29.672 379.541 29.48 380.394 29.48H407.018C407.871 29.48 408.447 29.6507 408.746 29.992C409.087 30.3333 409.258 30.9093 409.258 31.72V33.448C409.258 34.2587 409.087 34.856 408.746 35.24C408.447 35.5813 407.871 35.752 407.018 35.752H386.218V48.168H401.322C402.175 48.168 402.773 48.3387 403.114 48.68C403.455 49.0213 403.626 49.5973 403.626 50.408V52.008C403.626 52.8187 403.455 53.416 403.114 53.8C402.773 54.1413 402.175 54.312 401.322 54.312H386.218V66.792H406.954C407.807 66.792 408.405 66.984 408.746 67.368C409.087 67.7093 409.258 68.2853 409.258 69.096V70.824C409.258 71.592 409.087 72.1467 408.746 72.488C408.405 72.8293 407.807 73 406.954 73H380.394Z" fill="black"/>
<path d="M6.144 73C5.29067 73 4.672 72.808 4.288 72.424C3.94667 72.04 3.776 71.464 3.776 70.696V31.848C3.776 31.0373 3.94667 30.44 4.288 30.056C4.672 29.672 5.29067 29.48 6.144 29.48H32.768C33.6213 29.48 34.1973 29.6507 34.496 29.992C34.8373 30.3333 35.008 30.9093 35.008 31.72V33.448C35.008 34.2587 34.8373 34.856 34.496 35.24C34.1973 35.5813 33.6213 35.752 32.768 35.752H11.968V48.168H27.072C27.9253 48.168 28.5227 48.3387 28.864 48.68C29.2053 49.0213 29.376 49.5973 29.376 50.408V52.008C29.376 52.8187 29.2053 53.416 28.864 53.8C28.5227 54.1413 27.9253 54.312 27.072 54.312H11.968V66.792H32.704C33.5573 66.792 34.1547 66.984 34.496 67.368C34.8373 67.7093 35.008 68.2853 35.008 69.096V70.824C35.008 71.592 34.8373 72.1467 34.496 72.488C34.1547 72.8293 33.5573 73 32.704 73H6.144ZM56.203 73.96C53.1737 73.96 50.187 73.64 47.243 73C44.3417 72.3173 42.0163 71.3787 40.267 70.184C39.7123 69.8 39.435 69.4587 39.435 69.16C39.435 68.8613 39.5203 68.6053 39.691 68.392L41.803 65.064C42.059 64.68 42.2937 64.488 42.507 64.488C42.7203 64.488 42.9977 64.5947 43.339 64.808C44.9177 65.7467 46.7523 66.5147 48.843 67.112C50.9337 67.6667 53.0457 67.944 55.179 67.944C58.0803 67.944 60.2563 67.4747 61.707 66.536C63.2003 65.5547 63.947 63.9973 63.947 61.864C63.947 60.584 63.6697 59.56 63.115 58.792C62.5603 58.024 61.7497 57.3627 60.683 56.808C59.6163 56.2533 57.8883 55.5067 55.499 54.568L54.027 53.992C51.2537 52.8827 48.9497 51.816 47.115 50.792C45.323 49.768 43.8297 48.424 42.635 46.76C41.4403 45.096 40.843 43.0693 40.843 40.68C40.843 36.7973 42.315 33.8107 45.259 31.72C48.2457 29.5867 52.1497 28.52 56.971 28.52C59.915 28.52 62.4537 28.7973 64.587 29.352C66.763 29.9067 68.6403 30.76 70.219 31.912C70.731 32.296 70.987 32.6587 70.987 33C70.987 33.256 70.9017 33.4907 70.731 33.704L68.683 37.032C68.427 37.416 68.2137 37.608 68.043 37.608C67.8723 37.608 67.595 37.48 67.211 37.224C64.4803 35.4747 61.0883 34.6 57.035 34.6C54.347 34.6 52.3203 35.0907 50.955 36.072C49.5897 37.0533 48.907 38.6107 48.907 40.744C48.907 42.0667 49.1843 43.1333 49.739 43.944C50.3363 44.712 51.1897 45.3733 52.299 45.928C53.4083 46.4827 55.2003 47.2293 57.675 48.168L59.275 48.808C62.3897 50.0453 64.8217 51.1973 66.571 52.264C68.3203 53.288 69.6643 54.5893 70.603 56.168C71.5843 57.704 72.075 59.688 72.075 62.12C72.075 65.7893 70.6883 68.6907 67.915 70.824C65.1843 72.9147 61.2803 73.96 56.203 73.96ZM90.0255 73C89.1722 73 88.5535 72.808 88.1695 72.424C87.7855 72.04 87.5935 71.464 87.5935 70.696V35.752H76.3935C75.5402 35.752 74.9428 35.5813 74.6015 35.24C74.3028 34.8987 74.1535 34.3227 74.1535 33.512V31.784C74.1535 30.9733 74.3028 30.3973 74.6015 30.056C74.9428 29.672 75.5402 29.48 76.3935 29.48H106.986C107.839 29.48 108.436 29.672 108.778 30.056C109.119 30.3973 109.29 30.9733 109.29 31.784V33.512C109.29 34.3227 109.119 34.8987 108.778 35.24C108.436 35.5813 107.839 35.752 106.986 35.752H95.7855V70.696C95.7855 71.464 95.5935 72.04 95.2095 72.424C94.8682 72.808 94.2495 73 93.3535 73H90.0255ZM116.644 73C115.791 73 115.172 72.808 114.788 72.424C114.447 72.04 114.276 71.464 114.276 70.696V31.848C114.276 31.0373 114.447 30.44 114.788 30.056C115.172 29.672 115.791 29.48 116.644 29.48H120.036C120.889 29.48 121.508 29.672 121.892 30.056C122.276 30.44 122.468 31.0373 122.468 31.848V70.696C122.468 71.464 122.276 72.04 121.892 72.424C121.551 72.808 120.932 73 120.036 73H116.644ZM132.394 73C131.541 73 130.922 72.808 130.538 72.424C130.197 72.04 130.026 71.464 130.026 70.696V31.848C130.026 31.0373 130.197 30.44 130.538 30.056C130.922 29.672 131.541 29.48 132.394 29.48H135.786C136.639 29.48 137.258 29.672 137.642 30.056C138.026 30.44 138.218 31.0373 138.218 31.848V66.792H157.802C158.655 66.792 159.253 66.984 159.594 67.368C159.935 67.7093 160.106 68.2853 160.106 69.096V70.824C160.106 71.592 159.935 72.1467 159.594 72.488C159.253 72.8293 158.655 73 157.802 73H132.394Z" fill="black"/>
<defs>
<clipPath id="clip0_118_5">
<rect width="48" height="48" fill="white" transform="translate(162 26)"/>
</clipPath>
</defs>
</svg>
