<svg width="48" height="48" viewBox="0 0 48 48" fill="none" xmlns="http://www.w3.org/2000/svg">
<g clip-path="url(#clip0_114_14)">
<path d="M22.0899 0.0329449C20.9719 0.0863171 20.0997 0.16341 19.6022 0.258294C19.2275 0.323527 18.6831 0.418411 18.3261 0.471783C18.209 0.495504 18.0919 0.531086 18.0744 0.560737C18.0568 0.590388 17.9397 0.614109 17.8168 0.614109C17.6939 0.614109 17.571 0.63783 17.5534 0.673412C17.5358 0.703063 17.4422 0.732714 17.3485 0.732714C17.2549 0.732714 17.1612 0.756435 17.1437 0.792016C17.1261 0.821668 17.0207 0.851319 16.9095 0.851319C16.7983 0.851319 16.6929 0.87504 16.6754 0.910621C16.6578 0.940273 16.5759 0.969924 16.4998 0.969924C16.4237 0.969924 16.3417 0.993645 16.3242 1.02923C16.3066 1.05888 16.2364 1.08853 16.172 1.08853C16.1134 1.08853 16.0139 1.11225 15.9554 1.1419C15.9027 1.17155 15.7915 1.21899 15.7095 1.24865C15.452 1.35539 15.2178 1.4562 15.1125 1.50958C15.0539 1.53923 14.9778 1.56295 14.9486 1.56295C14.9134 1.56295 14.773 1.61632 14.6442 1.68155C14.5095 1.74679 14.3632 1.80016 14.3222 1.80016C14.2813 1.80016 14.2461 1.82388 14.2461 1.85946C14.2461 1.88911 14.2052 1.91876 14.1583 1.91876C14.1115 1.91876 14.0237 1.94248 13.9652 1.97214C13.532 2.19155 13.3447 2.27458 13.2744 2.27458C13.2276 2.27458 13.1925 2.2983 13.1925 2.33388C13.1925 2.36353 13.1398 2.39318 13.0754 2.39318C13.011 2.39318 12.9584 2.4169 12.9584 2.45249C12.9584 2.48214 12.9057 2.51179 12.8471 2.51179C12.7827 2.51179 12.7242 2.52958 12.7125 2.5533C12.7066 2.58295 12.5837 2.66004 12.4491 2.73121C12.3086 2.8083 12.0862 2.92691 11.9515 2.99807C11.8111 3.07516 11.694 3.15225 11.6823 3.17598C11.6706 3.20563 11.6354 3.22342 11.6062 3.22342C11.5711 3.22342 11.3896 3.33016 11.2023 3.46063C11.015 3.59109 10.8394 3.69784 10.8218 3.69784C10.8042 3.69784 10.734 3.75121 10.6637 3.81644C10.5935 3.88167 10.4998 3.93505 10.4589 3.93505C10.4179 3.93505 10.3828 3.95877 10.3828 3.98842C10.3828 4.01807 10.3067 4.07144 10.2072 4.11295C10.1135 4.15447 10.0316 4.20191 10.0316 4.22563C10.0316 4.24935 9.95547 4.31458 9.85596 4.36795C9.7623 4.42726 9.65108 4.50435 9.61011 4.54586C9.56913 4.58737 9.44035 4.68819 9.32913 4.76528C9.21792 4.84237 9.08328 4.94912 9.03646 5.00249C8.98963 5.05586 8.855 5.16261 8.74378 5.2397C8.63256 5.31679 8.49793 5.42354 8.4511 5.47691C8.40427 5.52435 8.19354 5.71412 7.98281 5.89203C7.49697 6.31308 6.52527 7.2975 6.10967 7.78971C5.93406 8.0032 5.74675 8.21668 5.69992 8.26413C5.64724 8.31157 5.54187 8.44796 5.46578 8.56064C5.38968 8.67331 5.30773 8.78006 5.29017 8.79785C5.27261 8.81564 5.16724 8.94611 5.05603 9.09436C4.94481 9.24262 4.80432 9.41459 4.75164 9.4739C4.6931 9.53913 4.64627 9.62808 4.64627 9.6696C4.64627 9.71111 4.62286 9.74669 4.59945 9.74669C4.57603 9.74669 4.51164 9.81785 4.45896 9.90681C4.40628 10.0017 4.29506 10.1499 4.21311 10.2508C4.13116 10.3456 4.06092 10.4642 4.06092 10.4998C4.06092 10.5413 4.0375 10.5769 4.00238 10.5769C3.97311 10.5769 3.94385 10.6066 3.94385 10.6422C3.94385 10.6718 3.83848 10.8616 3.7097 11.0513C3.58092 11.2411 3.47556 11.4249 3.47556 11.4605C3.47556 11.4902 3.458 11.5258 3.43458 11.5376C3.37605 11.5613 3.18873 11.8756 3.14191 12.012C3.12435 12.0713 3.08922 12.1188 3.05996 12.1188C3.03069 12.1188 3.00727 12.1722 3.00727 12.2315C3.00727 12.2967 2.98971 12.356 2.96045 12.3679C2.90191 12.3916 2.0707 14.0876 2.0707 14.1766C2.0707 14.2181 2.04729 14.2537 2.01217 14.2537C1.9829 14.2537 1.95363 14.2952 1.95363 14.3426C1.95363 14.3901 1.93022 14.479 1.90095 14.5383C1.83071 14.6747 1.74876 14.8941 1.66095 15.1432C1.57315 15.3923 1.52047 15.5405 1.43852 15.7362C1.40339 15.8193 1.34486 15.9912 1.30388 16.1217C1.26291 16.2522 1.20437 16.3826 1.18096 16.4123C1.15754 16.4479 1.13413 16.5428 1.13413 16.6317C1.13413 16.7207 1.10486 16.8155 1.07559 16.8333C1.04047 16.8511 1.01706 16.9223 1.01706 16.9875C1.01706 17.0468 0.993644 17.1476 0.964376 17.2069C0.935109 17.2603 0.882426 17.4264 0.841451 17.5746C0.80633 17.7229 0.747794 17.9245 0.718526 18.0253C0.689258 18.1261 0.665844 18.2625 0.665844 18.3337C0.665844 18.3989 0.64243 18.476 0.607308 18.4938C0.578041 18.5116 0.548773 18.6361 0.548773 18.7607C0.548773 18.8852 0.525358 19.0097 0.490237 19.0275C0.460969 19.0453 0.431701 19.1758 0.431701 19.3181C0.431701 19.4545 0.408287 19.5909 0.379019 19.6205C0.349751 19.6561 0.308776 19.8281 0.291215 20.006C0.273655 20.1839 0.23268 20.5338 0.197558 20.7769C-0.0658527 22.7339 -0.0658527 25.1297 0.197558 27.063C0.23268 27.3061 0.273655 27.6382 0.291215 27.8043C0.308776 27.9644 0.349751 28.1245 0.379019 28.1542C0.408287 28.1898 0.431701 28.3262 0.431701 28.4625C0.431701 28.6049 0.460969 28.7353 0.490237 28.7531C0.525358 28.7709 0.548773 28.8955 0.548773 29.02C0.548773 29.1445 0.572187 29.2691 0.607308 29.2869C0.636576 29.3046 0.665844 29.4114 0.665844 29.5241C0.665844 29.6367 0.695112 29.7435 0.72438 29.7613C0.759501 29.7791 0.782916 29.8858 0.782916 29.9985C0.782916 30.1112 0.80633 30.2179 0.841451 30.2357C0.870719 30.2535 0.899987 30.3484 0.899987 30.4432C0.899987 30.5381 0.929255 30.633 0.958523 30.6508C0.993644 30.6686 1.01706 30.7398 1.01706 30.805C1.01706 30.8643 1.04047 30.9651 1.06974 31.0244C1.09901 31.0778 1.15754 31.2438 1.19852 31.3921C1.23949 31.5403 1.29218 31.6827 1.32144 31.7183C1.34486 31.7479 1.36827 31.8309 1.36827 31.908C1.36827 31.9851 1.39754 32.0444 1.42681 32.0444C1.46193 32.0444 1.48534 32.0978 1.48534 32.163C1.48534 32.2283 1.50876 32.3291 1.53803 32.3884C1.56729 32.4417 1.63168 32.59 1.68437 32.7086C1.73705 32.8331 1.819 33.0288 1.86583 33.1415C1.91266 33.2542 1.99461 33.444 2.04143 33.5566C2.24631 34.0429 2.33411 34.2149 2.43362 34.3691C2.49216 34.4521 2.53899 34.5529 2.53899 34.5885C2.53899 34.6181 2.62094 34.7901 2.72045 34.9621C2.90776 35.2764 3.01898 35.478 3.24727 35.8813C3.31166 35.9999 3.46971 36.249 3.59849 36.4387C3.72141 36.6285 3.82677 36.8123 3.82677 36.842C3.82677 36.8776 3.85604 36.9072 3.88531 36.9072C3.92043 36.9072 3.94385 36.9428 3.94385 36.9843C3.94385 37.0436 4.71652 38.1288 4.82188 38.2119C4.8453 38.2297 4.88627 38.283 4.91554 38.3364C5.21993 38.882 6.73015 40.5365 7.83647 41.5269C14.2696 47.3089 23.2606 49.4141 31.4264 47.042C36.7297 45.5061 41.5238 42.0072 44.4974 37.518C46.9501 33.8116 48.2203 29.2335 47.9686 25.0527C47.7871 22.0816 47.0437 19.6917 45.6857 17.7229C45.3111 17.1714 44.2808 16.0921 44.1403 16.0921C43.9764 16.0921 44.0116 16.2166 44.3979 17.0053C44.4916 17.1951 44.5677 17.3908 44.5677 17.4382C44.5677 17.4797 44.5911 17.5628 44.6203 17.6221C44.6496 17.6754 44.7023 17.8415 44.7433 17.9897C44.7842 18.138 44.8369 18.304 44.8662 18.3574C44.8955 18.4167 44.9189 18.5294 44.9189 18.6065C44.9189 18.6895 44.9481 18.7725 44.9774 18.7903C45.0125 18.8081 45.0359 18.9148 45.0359 19.0216C45.0359 19.1224 45.0594 19.2351 45.0886 19.2647C45.1179 19.3003 45.1589 19.4545 45.1764 19.6205C45.1998 19.7807 45.2408 20.1305 45.2818 20.3915C45.3637 21.0023 45.3637 24.1275 45.2759 24.8688C45.2408 25.1772 45.194 25.5923 45.1764 25.788C45.1589 25.9837 45.1179 26.1675 45.0886 26.1972C45.0594 26.2328 45.0359 26.3692 45.0359 26.5056C45.0359 26.6479 45.0125 26.7784 44.9774 26.7961C44.9481 26.8139 44.9189 26.9385 44.9189 27.063C44.9189 27.1875 44.8955 27.3121 44.8603 27.3299C44.8311 27.3477 44.8018 27.4544 44.8018 27.5671C44.8018 27.6798 44.7784 27.7865 44.7433 27.8043C44.714 27.8221 44.6847 27.9288 44.6847 28.0415C44.6847 28.1542 44.6613 28.2609 44.6262 28.2787C44.5969 28.2965 44.5677 28.3795 44.5677 28.4566C44.5677 28.5337 44.5442 28.6167 44.5091 28.6345C44.4799 28.6523 44.4506 28.7353 44.4506 28.8124C44.4506 28.8895 44.4272 28.9725 44.392 28.9903C44.3628 29.0081 44.3335 29.0912 44.3335 29.1682C44.3335 29.2453 44.3101 29.3284 44.275 29.3462C44.2457 29.3639 44.2164 29.4351 44.2164 29.5003C44.2164 29.5596 44.193 29.6664 44.1579 29.7316C44.1286 29.7969 44.076 29.9036 44.0408 29.9688C44.0057 30.0341 43.9823 30.1289 43.9823 30.1764C43.9823 30.2238 43.9589 30.2653 43.9238 30.2653C43.8945 30.2653 43.8652 30.3069 43.8652 30.3543C43.8652 30.4017 43.8418 30.4907 43.8125 30.55C43.596 30.9888 43.514 31.1786 43.514 31.2498C43.514 31.2972 43.4906 31.3328 43.4555 31.3328C43.4262 31.3328 43.3969 31.3862 43.3969 31.4514C43.3969 31.5166 43.3735 31.57 43.3384 31.57C43.3091 31.57 43.2799 31.6234 43.2799 31.6886C43.2799 31.7538 43.2565 31.8072 43.2213 31.8072C43.1921 31.8072 43.1628 31.8606 43.1628 31.9199C43.1628 31.9851 43.1452 32.0444 43.116 32.0563C43.0926 32.0622 42.9872 32.246 42.876 32.4595C42.7648 32.673 42.6594 32.8569 42.6418 32.8746C42.5833 32.9221 42.396 33.2483 42.3609 33.3609C42.3433 33.4202 42.3082 33.4677 42.2789 33.4677C42.2496 33.4677 42.2262 33.5033 42.2262 33.5388C42.2262 33.5803 42.1443 33.7108 42.0506 33.8235C41.957 33.9362 41.875 34.0666 41.875 34.1022C41.875 34.1437 41.8516 34.1793 41.8282 34.1793C41.8048 34.1793 41.7345 34.2564 41.6818 34.3572C41.6233 34.4521 41.5472 34.5648 41.5062 34.6063C41.4653 34.6478 41.3657 34.7783 41.2897 34.8909C41.2136 35.0036 41.1316 35.1104 41.114 35.1281C41.0965 35.1459 40.9911 35.2764 40.8799 35.4247C40.3004 36.1837 39.1824 37.3105 38.2458 38.0933C38.0702 38.2415 37.9121 38.372 37.8946 38.3898C37.877 38.4076 37.7717 38.4906 37.6604 38.5677C37.5492 38.6448 37.4439 38.7278 37.4263 38.7456C37.4087 38.7634 37.3034 38.8464 37.1922 38.9235C37.0809 39.0006 36.9522 39.1014 36.9112 39.1429C36.8702 39.1844 36.8117 39.22 36.7883 39.22C36.7648 39.22 36.6653 39.2852 36.5717 39.3683C36.478 39.4513 36.3668 39.5165 36.3317 39.5165C36.2907 39.5165 36.2556 39.5402 36.2556 39.5699C36.2556 39.5995 36.1795 39.6529 36.08 39.6944C35.9863 39.7359 35.9044 39.7893 35.9044 39.819C35.9044 39.8486 35.8751 39.8723 35.84 39.8723C35.8107 39.8723 35.6292 39.9732 35.4478 40.0977C35.2663 40.2222 34.9854 40.3883 34.8215 40.4654C34.6634 40.5484 34.5229 40.6314 34.5112 40.6551C34.4995 40.6848 34.441 40.7026 34.3766 40.7026C34.318 40.7026 34.2654 40.7263 34.2654 40.7619C34.2654 40.7915 34.2302 40.8212 34.1834 40.8212C34.1366 40.8212 33.9844 40.8805 33.8439 40.9457C33.6098 41.0643 33.4927 41.1177 33.1707 41.2422C33.0946 41.2719 32.9717 41.3193 32.8898 41.3549C32.8078 41.3846 32.679 41.4379 32.5971 41.4735C32.5151 41.5032 32.3922 41.5565 32.322 41.5862C32.2459 41.6158 32.082 41.6751 31.9532 41.7166C31.8244 41.7522 31.6722 41.8056 31.6195 41.8353C31.561 41.8649 31.4615 41.8886 31.403 41.8886C31.3386 41.8886 31.2683 41.9123 31.2508 41.9479C31.2332 41.9776 31.1396 42.0072 31.0459 42.0072C30.9522 42.0072 30.8586 42.0309 30.841 42.0665C30.8235 42.0962 30.7298 42.1258 30.6361 42.1258C30.5425 42.1258 30.4488 42.1496 30.4313 42.1851C30.4137 42.2148 30.3083 42.2444 30.203 42.2444C30.1035 42.2444 29.9923 42.2682 29.963 42.2978C29.9279 42.3275 29.7991 42.363 29.6703 42.3808C29.5415 42.4046 29.2898 42.4461 29.1142 42.4816C28.9386 42.5172 28.6459 42.5647 28.4703 42.5765C28.2947 42.5943 28.0957 42.6299 28.0313 42.6596C27.8264 42.7485 26.9601 42.796 25.3972 42.796C23.7465 42.796 22.7689 42.7129 21.6216 42.4816C21.446 42.4461 21.1826 42.3986 21.0363 42.3808C20.8899 42.363 20.7495 42.3275 20.7143 42.2978C20.6851 42.2682 20.5739 42.2444 20.4743 42.2444C20.369 42.2444 20.2636 42.2207 20.2461 42.1851C20.2285 42.1555 20.1524 42.1258 20.088 42.1258C19.9534 42.1258 19.6139 42.025 19.4441 41.942C19.3856 41.9123 19.2861 41.8886 19.2217 41.8886C19.1573 41.8886 19.0461 41.859 18.97 41.8175C18.6949 41.6751 18.6363 41.6514 18.5485 41.6514C18.5017 41.6514 18.4139 41.6277 18.3553 41.598C18.2441 41.5387 17.969 41.4201 17.7876 41.3549C17.3719 41.2007 15.0481 40.0325 14.9486 39.9316C14.89 39.8723 14.5681 39.6885 14.4686 39.6529C14.41 39.6351 14.3632 39.5995 14.3632 39.5699C14.3632 39.5402 14.3281 39.5165 14.2871 39.5165C14.2461 39.5165 14.1525 39.4632 14.0822 39.3979C14.012 39.3327 13.9418 39.2793 13.9242 39.2793C13.8832 39.2793 13.3681 38.9235 13.3096 38.8642C13.292 38.8464 13.1866 38.7634 13.0754 38.6863C12.9642 38.6092 12.8354 38.5084 12.7945 38.4669C12.7476 38.4254 12.6188 38.3127 12.5018 38.2237C12.3788 38.1348 12.2501 38.034 12.2091 37.9925C12.1681 37.9509 12.0101 37.8205 11.8579 37.6959C11.4891 37.3994 10.1311 36.0177 9.7623 35.5729C7.32136 32.6196 5.86382 29.0793 5.51846 25.2602C5.43651 24.3588 5.48334 22.0282 5.60626 21.2217C6.10382 17.8771 7.42087 14.8467 9.53986 12.1484C10.2013 11.3063 11.6472 9.84157 12.4315 9.21297C15.8149 6.49691 20.0412 5.10924 24.1504 5.37017C25.9357 5.47691 27.9025 6.11145 29.723 7.16703C30.4957 7.6118 30.7532 7.7304 30.7532 7.64738C30.7532 7.62959 30.6596 7.43982 30.5483 7.21447C30.3318 6.78157 30.2264 6.34273 30.2264 5.89796C30.2323 5.54214 30.2966 5.65482 30.4605 6.30122C30.5308 6.57401 30.6654 6.95947 30.7591 7.14924C30.9054 7.44575 31.5552 8.44203 31.7893 8.73855C31.8303 8.78599 31.9942 8.99948 32.1581 9.21297C32.3278 9.42646 32.5737 9.71704 32.7083 9.86529C32.8429 10.0135 33.0186 10.227 33.0946 10.3397C33.1707 10.4524 33.2703 10.5829 33.3112 10.6244C33.3522 10.6659 33.3873 10.7252 33.3873 10.7548C33.3873 10.7845 33.4224 10.8438 33.4634 10.8853C33.5395 10.9683 33.6976 11.2589 33.9902 11.8519C34.3356 12.5636 34.4058 12.6881 34.6166 13.0083C34.921 13.465 35.5941 14.0876 35.998 14.2893C36.6712 14.6273 37.4439 14.485 37.9297 13.9453C38.2458 13.5895 38.1638 13.465 37.719 13.6013C37.4497 13.6784 36.9404 13.3463 36.2263 12.6229C35.641 12.0358 35.5531 11.9112 35.2956 11.3775C34.9385 10.6244 34.6341 9.69925 34.5112 8.9639C34.4293 8.47169 34.4293 8.32936 34.4878 7.95575C34.6341 7.09587 35.0322 6.68668 36.1268 6.26563C36.5717 6.09959 38.5677 5.57773 39.9316 5.26935C40.7394 5.08551 41.4009 4.89575 41.9628 4.67633C42.074 4.62889 42.074 4.63482 41.957 4.77121C41.8867 4.8483 41.8165 4.95505 41.7989 5.00842C41.7462 5.16261 41.3775 5.30493 40.8038 5.39389C40.5053 5.4354 40.1189 5.53028 39.9433 5.59552C39.756 5.66668 39.4809 5.71412 39.2702 5.71412C38.8487 5.71412 38.5677 5.78528 38.0995 6.0047C37.8419 6.12924 37.6253 6.18261 37.3034 6.2004C36.9229 6.22412 36.8117 6.2597 36.5131 6.44354C36.32 6.56808 36.1092 6.66296 36.0448 6.66296C35.9219 6.66296 35.5122 6.91203 35.2546 7.14924C35.1668 7.22633 35.038 7.41017 34.9678 7.56436C34.8566 7.8075 34.8449 7.91424 34.8683 8.48355C34.88 8.83343 34.9268 9.24262 34.9619 9.39087C35.0029 9.53913 35.0556 9.7882 35.079 9.95425C35.1024 10.1144 35.1668 10.3575 35.2253 10.488C35.319 10.6955 35.6527 11.4249 35.8634 11.8816C36.0331 12.2374 37.1863 13.3048 37.4029 13.3048C37.596 13.3048 38.2985 12.4568 38.3043 12.2196C38.3043 12.1484 38.0643 12.2374 37.9004 12.3619C37.8185 12.4272 37.6663 12.4746 37.5258 12.4746C37.1453 12.4746 36.8058 12.0358 36.677 11.3894C36.6244 11.1344 36.6302 11.1047 36.718 11.1403C37.157 11.3123 37.9238 11.4783 38.6438 11.5554C39.6682 11.6622 40.078 11.763 40.5287 12.0061C40.8975 12.2077 41.5062 12.8008 41.8223 13.2811C42.4077 14.1647 43.0984 14.8467 43.4145 14.8467C43.5023 14.8467 43.5082 14.8289 43.4496 14.7103C43.3091 14.4434 42.6594 13.4234 42.396 13.0736L42.2087 12.8186L42.5891 13.0854C42.8057 13.2337 43.1277 13.4116 43.3208 13.4827C43.7072 13.6369 44.5091 13.7081 44.7433 13.6132C44.8837 13.5539 44.8837 13.548 44.6906 13.548C44.2106 13.5361 43.5901 13.2337 43.0223 12.7355C42.2672 12.0713 41.8867 11.763 41.8223 11.763C41.7872 11.763 41.7579 11.7452 41.7579 11.7155C41.7579 11.674 41.6116 11.6029 41.2311 11.4665C41.1199 11.4309 40.9736 11.3716 40.9092 11.3479C40.5345 11.1996 39.7443 11.0573 38.7726 10.9565C38.597 10.9387 38.4273 10.8972 38.398 10.8675C38.3629 10.8379 38.2692 10.8141 38.1814 10.8141C38.0936 10.8141 37.9999 10.7845 37.9824 10.7548C37.9648 10.7192 37.8946 10.6955 37.8302 10.6955C37.6429 10.6955 37.0809 10.399 36.8761 10.1915C36.5014 9.81785 36.4663 9.42052 36.7239 8.60215C37.1043 7.39831 37.6604 6.93575 39.0829 6.65703C39.7794 6.52063 39.7677 6.52063 39.7677 6.6511C39.7677 6.7104 39.797 6.7875 39.8321 6.82308C39.9375 6.92982 39.8263 9.11215 39.7033 9.24262C39.6741 9.27227 39.6507 9.40866 39.6507 9.54506C39.6507 9.68739 39.6272 9.81785 39.5921 9.83564C39.5628 9.85343 39.5336 9.91867 39.5336 9.97204C39.5394 10.1262 39.6799 9.91867 39.9433 9.36122C40.3297 8.54878 40.5814 7.55843 40.6575 6.54436C40.675 6.34866 40.6926 6.33087 41.0262 6.20633C41.2194 6.13517 41.395 6.07587 41.4126 6.07587C41.4301 6.06994 41.4945 6.17668 41.5531 6.30122C41.6701 6.56808 41.6584 6.7104 41.436 8.38273C41.4009 8.63773 41.4009 8.64366 41.4887 8.51913C41.8282 8.05064 42.2262 6.84087 42.3199 6.0047C42.3491 5.74377 42.4077 5.56586 42.5013 5.4354C42.9404 4.85424 42.9052 3.76307 42.437 3.13446C42.2789 2.92691 41.7579 2.63039 41.5531 2.63039C41.4828 2.63039 41.4067 2.60667 41.3716 2.57702C41.3189 2.51772 40.9853 2.47621 40.2067 2.4169C39.9492 2.39911 39.715 2.3576 39.6858 2.32795C39.6507 2.2983 39.5043 2.27458 39.3521 2.27458C39.1999 2.27458 39.0536 2.24493 39.036 2.21528C39.0185 2.17969 38.9482 2.15597 38.8897 2.15597C38.8253 2.15597 38.679 2.09667 38.556 2.02551C38.0292 1.72307 37.7014 1.56295 37.6078 1.56295C37.5551 1.56295 37.4848 1.53923 37.4497 1.50958C37.3912 1.45027 37.0165 1.40876 36.0214 1.34946C35.6527 1.33167 35.3249 1.29016 35.2956 1.26051C35.2605 1.23085 35.1375 1.20713 35.0205 1.20713C34.8975 1.20713 34.7805 1.17748 34.7629 1.14783C34.7454 1.11225 34.599 1.08853 34.4468 1.08853C34.2946 1.08853 34.1483 1.06481 34.1132 1.03516C34.0839 1.00551 33.9141 0.963994 33.7385 0.946203C33.5629 0.928412 33.2351 0.8869 33.0068 0.851319C32.2927 0.738644 31.7483 0.714923 31.4615 0.797947C31.122 0.892831 29.8986 0.898761 29.8049 0.803877C29.764 0.762365 29.6118 0.732714 29.4654 0.732714C29.3191 0.732714 29.1728 0.708993 29.1435 0.679342C29.1084 0.649691 28.9386 0.608179 28.763 0.590388C28.5874 0.578528 28.2889 0.531086 28.1074 0.501434C26.9718 0.287946 26.4801 0.210852 26.0411 0.169341C25.883 0.15155 25.5377 0.115968 25.2801 0.0803869C24.607 -0.00263655 23.208 -0.0263575 22.0899 0.0329449ZM37.6046 3.64824C37.6748 3.69568 37.8699 3.83849 37.9108 3.92744C37.9869 4.0757 38.0825 4.11128 37.983 4.27733C37.8835 4.43744 36.7511 4.20274 36.5697 4.20274C36.2594 4.19681 35.704 3.78476 35.704 3.50011C35.704 3.22138 37.3353 3.45254 37.6046 3.64824Z" fill="black"/>
</g>
<defs>
<clipPath id="clip0_114_14">
<rect width="48" height="48" fill="white"/>
</clipPath>
</defs>
</svg>
